<svg width="14" height="16" viewBox="0 0 14 16" fill="none" xmlns="http://www.w3.org/2000/svg">
<path fill-rule="evenodd" clip-rule="evenodd" d="M0.19825 9.76339L6.51469 15.8168C6.78757 16.0636 7.21488 16.0607 7.48429 15.81L13.8007 9.75705C14.0664 9.50217 14.0664 9.08919 13.8007 8.83431C13.5348 8.57942 13.1037 8.57942 12.8378 8.83431L7.68222 13.7752L7.68222 0.65433C7.68222 0.292927 7.37653 -2.89521e-07 6.99937 -3.06007e-07C6.62218 -3.22495e-07 6.31651 0.292927 6.31651 0.65433L6.31651 13.7752L1.16091 8.83431C1.03341 8.71173 0.860033 8.64283 0.679442 8.64283C0.498866 8.64283 0.325746 8.71173 0.19825 8.83431C0.0718151 8.959 0.000857908 9.12512 5.87213e-05 9.29885C-0.00233978 9.473 0.069141 9.64081 0.19825 9.76339Z" fill="#088D8D"/>
</svg>
